<svg width="116" height="56" viewBox="0 0 116 56" fill="none" xmlns="http://www.w3.org/2000/svg">
<g clip-path="url(#clip0_113_29204)">
<path d="M7.28 35.5601H0V55.6267H7.18667V35.5601H7.28Z" fill="url(#paint0_linear_113_29204)"/>
<path d="M102.759 35.5599H91.6523V55.6266H102.479C112.466 55.6266 115.732 50.6799 115.732 44.7999C115.732 38.9199 112.092 35.5599 102.666 35.5599H102.759ZM108.639 44.8933C108.639 49.4666 106.492 53.8533 101.732 53.8533H98.839V37.1466H101.732C106.679 37.1466 108.546 40.7866 108.639 44.7066V44.8933Z" fill="url(#paint1_linear_113_29204)"/>
<path d="M33.6934 49.6533C33.32 56.0933 22.5867 56.3733 18.2934 54.9733C14.7467 53.8533 12.5067 52.1733 12.5067 52.1733L13.8134 50.12C13.8134 50.12 15.5867 51.8 18.0134 52.36C22.6801 53.6666 26.3201 52.4533 26.5067 50.3066C26.5067 47.04 11.3867 46.48 11.3867 39.9466C11.3867 33.4133 16.9867 33.5066 26.0401 35.1866C29.4934 35.84 32.4801 37.24 32.4801 37.24C32.2001 37.8933 31.6401 38.7333 31.6401 38.92C31.6401 38.92 29.7734 37.9866 26.3201 37.24C23.4267 36.5866 18.7601 37.1466 18.7601 39.48C18.6667 43.4 33.8801 42.9333 33.8801 49.56L33.6934 49.6533Z" fill="url(#paint2_linear_113_29204)"/>
<path d="M88.5733 55.6267H81.6667C78.5867 49.6534 75.88 43.7734 72.8 37.8001C71.4 41.0667 69.9067 44.4267 68.5067 47.7867C67.3867 50.4001 66.2667 53.0134 65.24 55.6267H62.3467C65.52 48.9067 68.5067 42.3734 71.7733 35.5601H78.96C82.1333 42.0934 85.3067 49.0001 88.5733 55.6267Z" fill="url(#paint3_linear_113_29204)"/>
<path d="M56.7462 35.56H59.2662V55.6267H51.9862C47.9728 49.28 45.5462 46.0133 39.8529 38.1733C39.9462 41.0667 40.0395 43.96 40.1329 46.8533C40.2262 49.7467 40.3195 52.64 40.4128 55.5333H38.1729V35.4667H45.0795C47.2262 38.36 49.2795 41.2533 51.4262 44.24C53.4795 47.1333 55.4395 49.9333 57.3995 52.7333C57.3062 49.84 57.2128 46.9467 57.0262 44.0533C56.9328 41.16 56.8395 38.2667 56.7462 35.4667V35.56Z" fill="url(#paint4_linear_113_29204)"/>
<path d="M115.36 25.9467C113.4 27.16 111.907 26.32 111.907 26.32C112.28 25.1067 112.933 24.92 114.147 25.6667L114.333 25.48V24.8267C112.933 24.1734 111.533 24.4534 110.88 26.88C110.88 26.88 111.253 27.72 112.467 27.5334L111.067 28.0934L110.88 28.9334L115.173 27.2534L115.547 26.2267L115.36 26.04V25.9467Z" fill="#DBE4F4"/>
<path d="M35.28 0.560059L20.0667 4.94673L19.04 6.25339L35.56 1.77339L35.9334 1.40006L35.28 0.560059Z" fill="#DBE4F4"/>
<path d="M73.9193 2.23999C72.7059 2.23999 71.5859 3.45332 71.5859 4.85332C71.5859 6.25332 72.7059 7.18666 73.9193 7.18666C75.1326 7.18666 76.2526 6.06666 76.2526 4.85332C76.2526 3.63999 75.1326 2.23999 73.9193 2.23999ZM75.0393 5.41332C74.6659 5.78666 74.1993 5.78666 73.9193 5.78666C73.6393 5.78666 73.1726 5.78666 72.8926 5.41332C72.5193 5.03999 72.5193 4.57332 72.5193 4.47999C72.5193 3.82666 73.0793 3.07999 73.9193 3.07999C74.7593 3.07999 75.2259 3.91999 75.3193 4.47999C75.3193 4.47999 75.3193 5.03999 75.0393 5.41332Z" fill="#DBE4F4"/>
<path d="M114.427 0.653377H114.053C114.053 0.560044 112.467 2.52004 112.467 2.52004V23.1467L113.867 22.68C113.96 22.3067 114.333 21 114.52 19.9734C114.8 18.5734 114.8 12.6934 114.52 0.653377H114.427Z" fill="#DBE4F4"/>
<path d="M27.5329 10.5467C27.0662 10.92 26.5996 11.2934 26.1329 11.76C25.6662 12.2267 25.1996 12.6934 24.8262 13.16C24.4529 12.7867 24.0796 12.32 23.6129 11.8533C23.1462 11.3867 22.6796 10.92 22.2129 10.5467C22.6796 10.1733 23.1462 9.80002 23.6129 9.33335C24.0796 8.86668 24.5462 8.40002 24.8262 7.93335C25.1996 8.40002 25.5729 8.86668 26.1329 9.33335C26.5996 9.80002 27.0662 10.2667 27.5329 10.5467Z" fill="#DBE4F4"/>
<path d="M109.386 23.3333C109.106 24.36 107.986 26.6933 105.279 26.6933C102.386 26.6 101.079 24.5466 100.892 21.28H100.799C100.706 23.24 96.9723 26.88 90.159 26.88C83.3457 26.88 82.319 24.1733 82.319 20.6266H82.039C78.5857 27.3466 66.919 26.9733 47.1323 26.88H46.6657C38.919 26.88 32.2923 27.16 30.9857 20.6266H30.7057C29.4923 25.2 26.599 26.88 21.6523 26.88C15.679 26.7866 14.6523 21.3733 14.6523 19.04V2.33329L16.239 0.373291L16.6123 0.746624V14.9333C16.6123 14.9333 16.3323 20.72 21.559 20.72C26.7857 20.72 28.0923 20.72 30.1457 18.0133C30.239 17.7333 29.3057 15.0266 29.3057 14.7466H31.8257C33.039 19.9733 33.4123 20.72 44.4257 20.72C52.919 20.72 78.3057 21.1866 82.039 17.2666C82.5057 16.24 83.0657 14.7466 83.0657 14.7466H84.4657C84.4657 18.3866 87.7323 20.72 91.3723 20.72C95.0123 20.72 99.2123 20.44 100.426 18.3866L99.959 15.4L101.732 14L102.012 18.0133C102.106 20.6266 106.119 21.3733 107.892 19.4133C107.799 16.8 105.932 14 105.932 14L107.799 11.0133H108.452C110.412 15.8666 110.132 20.3466 109.572 23.3333H109.479H109.386Z" fill="#DBE4F4"/>
<path d="M8.30602 8.96003C10.266 11.2934 13.2527 15.3067 12.3193 25.2934C12.0393 26.04 8.58602 26.88 5.41268 26.88C-2.05398 26.88 0.372684 17.7334 0.372684 17.7334H1.02602C1.02602 21.84 8.39935 20.72 10.1727 19.2267C9.42602 15.8667 6.06602 13.72 6.06602 13.72L7.74602 9.24003L8.39935 8.8667L8.30602 8.96003Z" fill="#DBE4F4"/>
</g>
<defs>
<linearGradient id="paint0_linear_113_29204" x1="3.64" y1="13.8134" x2="3.64" y2="106.867" gradientUnits="userSpaceOnUse">
<stop stop-color="#C5733F"/>
<stop offset="1" stop-color="#915A3C"/>
</linearGradient>
<linearGradient id="paint1_linear_113_29204" x1="103.692" y1="13.8133" x2="103.692" y2="106.867" gradientUnits="userSpaceOnUse">
<stop stop-color="#C5733F"/>
<stop offset="1" stop-color="#915A3C"/>
</linearGradient>
<linearGradient id="paint2_linear_113_29204" x1="22.4934" y1="12.2266" x2="22.4934" y2="108.92" gradientUnits="userSpaceOnUse">
<stop stop-color="#C5733F"/>
<stop offset="1" stop-color="#915A3C"/>
</linearGradient>
<linearGradient id="paint3_linear_113_29204" x1="75.5067" y1="13.8134" x2="75.5067" y2="106.867" gradientUnits="userSpaceOnUse">
<stop stop-color="#C5733F"/>
<stop offset="1" stop-color="#915A3C"/>
</linearGradient>
<linearGradient id="paint4_linear_113_29204" x1="48.7195" y1="13.8133" x2="48.7195" y2="106.867" gradientUnits="userSpaceOnUse">
<stop stop-color="#C5733F"/>
<stop offset="1" stop-color="#915A3C"/>
</linearGradient>
<clipPath id="clip0_113_29204">
<rect width="115.733" height="56" fill="white"/>
</clipPath>
</defs>
</svg>
